<svg width="1233" height="378" viewBox="0 0 1233 378" fill="none" xmlns="http://www.w3.org/2000/svg">
<rect width="378" height="378" rx="50" fill="#1AB9E9"/>
<g filter="url(#filter0_d_8708_2822)">
<path d="M327.34 161.794L284.638 141.061C280.996 139.297 276.884 138.745 272.906 139.487C268.928 140.229 265.291 142.226 262.53 145.184C253.11 155.286 241.713 163.342 229.046 168.849C216.38 174.357 202.715 177.199 188.903 177.199C175.091 177.199 161.427 174.357 148.76 168.849C136.094 163.342 124.696 155.286 115.277 145.184C112.515 142.227 108.878 140.231 104.9 139.489C100.922 138.747 96.8106 139.298 93.168 141.061L50.4667 161.794C48.5813 162.712 46.9214 164.034 45.6057 165.667C44.29 167.299 43.3508 169.202 42.8551 171.24C42.3594 173.277 42.3195 175.399 42.738 177.453C43.1566 179.508 44.0234 181.445 45.2767 183.126C61.9133 205.55 83.5691 223.766 108.51 236.318C133.451 248.869 160.984 255.406 188.905 255.406C216.826 255.406 244.36 248.869 269.301 236.318C294.242 223.766 315.897 205.55 332.534 183.126C333.786 181.445 334.653 179.508 335.071 177.453C335.489 175.399 335.449 173.277 334.953 171.24C334.457 169.203 333.519 167.3 332.203 165.668C330.888 164.035 329.229 162.712 327.344 161.794H327.34Z" fill="white"/>
</g>
<g clip-path="url(#clip0_8708_2822)">
<path d="M617.68 86.3882C616.628 83.9011 614.866 81.7791 612.614 80.2872C610.363 78.7954 607.722 77.9999 605.021 78H548.766C546.516 78.0002 544.316 78.6635 542.441 79.9071C540.566 81.1507 539.1 82.9194 538.225 84.992L529.744 105.087C529.303 106.131 529.126 107.267 529.232 108.396C529.337 109.524 529.72 110.609 530.347 111.553C530.974 112.497 531.825 113.272 532.824 113.807C533.823 114.342 534.94 114.621 536.073 114.619H552.779L478.548 290.468C478.107 291.511 477.931 292.648 478.036 293.777C478.141 294.905 478.524 295.99 479.151 296.934C479.778 297.878 480.629 298.652 481.628 299.187C482.628 299.722 483.744 300.002 484.877 300H507.998C510.248 300 512.448 299.336 514.323 298.093C516.198 296.849 517.664 295.081 518.539 293.008L534.906 254.225H647.472L663.839 293.006C664.714 295.079 666.181 296.847 668.056 298.091C669.931 299.334 672.131 299.998 674.381 299.998H697.5C698.633 299.998 699.749 299.718 700.747 299.182C701.745 298.647 702.595 297.873 703.222 296.929C703.849 295.985 704.232 294.901 704.338 293.774C704.444 292.646 704.269 291.51 703.83 290.466L617.68 86.3882ZM625.109 217.607H557.27C556.514 217.606 555.77 217.418 555.104 217.061C554.438 216.703 553.871 216.186 553.453 215.556C553.035 214.927 552.779 214.204 552.709 213.451C552.638 212.699 552.754 211.94 553.047 211.244L586.971 130.907C587.321 130.078 587.908 129.37 588.658 128.872C589.408 128.374 590.288 128.109 591.189 128.109C592.089 128.109 592.97 128.374 593.72 128.872C594.47 129.37 595.057 130.078 595.407 130.907L629.331 211.251C629.624 211.947 629.74 212.705 629.669 213.457C629.598 214.209 629.342 214.932 628.924 215.562C628.506 216.191 627.939 216.707 627.273 217.064C626.607 217.421 625.863 217.608 625.108 217.609L625.109 217.607Z" fill="#002139"/>
<path d="M947.925 127.229C902.089 128.306 864.698 165.69 863.62 211.518C863.176 229.859 868.584 247.866 879.06 262.929C889.537 277.992 904.538 289.329 921.89 295.298C939.242 301.266 958.044 301.557 975.573 296.126C993.101 290.696 1008.44 279.828 1019.38 265.095C1019.99 264.283 1020.4 263.348 1020.61 262.356C1020.81 261.364 1020.79 260.339 1020.55 259.355C1020.31 258.372 1019.86 257.453 1019.22 256.664C1018.59 255.876 1017.79 255.237 1016.87 254.794L996.251 244.786C994.492 243.934 992.506 243.668 990.584 244.026C988.663 244.385 986.906 245.349 985.572 246.778C980.035 252.713 973.099 257.168 965.399 259.737C957.698 262.306 949.476 262.908 941.484 261.487C933.491 260.066 925.981 256.668 919.637 251.602C913.294 246.537 908.32 239.964 905.168 232.485H1025.63C1028.14 232.494 1030.57 231.582 1032.45 229.924C1034.33 228.265 1035.54 225.974 1035.85 223.483C1036.23 220.205 1036.42 216.908 1036.42 213.608C1036.42 202.086 1034.12 190.681 1029.65 180.063C1025.17 169.445 1018.62 159.828 1010.37 151.78C1002.13 143.731 992.355 137.413 981.63 133.197C970.905 128.98 959.446 126.951 947.925 127.229ZM979.435 195.866H904.721C908.287 186.76 914.517 178.941 922.596 173.429C930.676 167.917 940.23 164.969 950.011 164.969C959.792 164.969 969.345 167.917 977.425 173.429C985.504 178.941 991.734 186.76 995.301 195.866H979.435Z" fill="#002139"/>
<path d="M1213.45 254.8L1192.82 244.787C1191.06 243.935 1189.08 243.669 1187.16 244.027C1185.24 244.386 1183.48 245.35 1182.15 246.779C1177.6 251.657 1172.09 255.547 1165.97 258.207C1159.85 260.866 1153.25 262.239 1146.58 262.239C1139.91 262.239 1133.31 260.866 1127.19 258.207C1121.08 255.547 1115.57 251.657 1111.02 246.779C1109.69 245.35 1107.93 244.386 1106.01 244.028C1104.09 243.67 1102.1 243.936 1100.34 244.787L1079.72 254.8C1078.81 255.243 1078.01 255.881 1077.37 256.67C1076.74 257.458 1076.28 258.377 1076.04 259.361C1075.8 260.345 1075.78 261.369 1075.99 262.362C1076.19 263.354 1076.61 264.289 1077.21 265.101C1085.25 275.93 1095.71 284.727 1107.75 290.788C1119.8 296.849 1133.1 300.006 1146.58 300.006C1160.07 300.006 1173.37 296.849 1185.42 290.788C1197.46 284.727 1207.92 275.93 1215.96 265.101C1216.56 264.289 1216.98 263.354 1217.18 262.362C1217.38 261.37 1217.37 260.345 1217.13 259.361C1216.89 258.377 1216.43 257.459 1215.8 256.67C1215.16 255.882 1214.36 255.243 1213.45 254.8H1213.45Z" fill="#1AB9E9"/>
<path d="M1146.59 127.206C1135.24 127.205 1124 129.44 1113.52 133.781C1103.03 138.123 1093.51 144.487 1085.48 152.51C1077.46 160.533 1071.09 170.057 1066.75 180.54C1062.41 191.022 1060.17 202.257 1060.17 213.603C1060.17 216.903 1060.36 220.2 1060.75 223.478C1061.05 225.969 1062.26 228.26 1064.15 229.919C1066.03 231.577 1068.46 232.488 1070.97 232.48H1222.21C1224.72 232.488 1227.14 231.577 1229.03 229.919C1230.91 228.26 1232.12 225.969 1232.43 223.478C1232.81 220.2 1233 216.903 1233 213.603C1233 202.257 1230.77 191.022 1226.42 180.54C1222.08 170.057 1215.72 160.533 1207.69 152.51C1199.67 144.487 1190.14 138.123 1179.66 133.782C1169.17 129.44 1157.94 127.205 1146.59 127.206ZM1176.01 195.865H1101.3C1104.86 186.76 1111.09 178.94 1119.17 173.429C1127.25 167.917 1136.81 164.969 1146.59 164.969C1156.37 164.969 1165.92 167.917 1174 173.429C1182.08 178.94 1188.31 186.76 1191.88 195.865H1176.01Z" fill="#002139"/>
<path d="M853.896 127.205H830.772C828.522 127.205 826.322 127.868 824.447 129.112C822.572 130.356 821.106 132.124 820.231 134.197L771.141 250.782C770.791 251.612 770.204 252.32 769.454 252.817C768.704 253.315 767.823 253.581 766.923 253.581C766.022 253.581 765.142 253.315 764.392 252.817C763.642 252.32 763.055 251.612 762.705 250.782L713.616 134.198C712.741 132.125 711.274 130.356 709.399 129.112C707.525 127.869 705.324 127.205 703.074 127.205H679.955C678.822 127.205 677.707 127.485 676.708 128.021C675.71 128.556 674.86 129.33 674.233 130.274C673.607 131.218 673.223 132.302 673.117 133.429C673.011 134.557 673.186 135.693 673.626 136.737L732.833 277.284C735.676 284.016 740.44 289.76 746.532 293.798C752.623 297.837 759.77 299.989 767.078 299.987C774.3 299.988 781.362 297.859 787.379 293.868C793.397 289.876 798.104 284.199 800.912 277.547L860.231 136.727C860.673 135.683 860.849 134.547 860.744 133.418C860.638 132.29 860.255 131.205 859.628 130.261C859.001 129.317 858.15 128.542 857.151 128.007C856.152 127.472 855.036 127.193 853.902 127.195L853.896 127.205Z" fill="#002139"/>
</g>
<defs>
<filter id="filter0_d_8708_2822" x="37.1865" y="139.166" width="303.435" height="126.77" filterUnits="userSpaceOnUse" color-interpolation-filters="sRGB">
<feFlood flood-opacity="0" result="BackgroundImageFix"/>
<feColorMatrix in="SourceAlpha" type="matrix" values="0 0 0 0 0 0 0 0 0 0 0 0 0 0 0 0 0 0 127 0" result="hardAlpha"/>
<feOffset dy="5.26463"/>
<feGaussianBlur stdDeviation="2.63231"/>
<feComposite in2="hardAlpha" operator="out"/>
<feColorMatrix type="matrix" values="0 0 0 0 0 0 0 0 0 0 0 0 0 0 0 0 0 0 0.05 0"/>
<feBlend mode="normal" in2="BackgroundImageFix" result="effect1_dropShadow_8708_2822"/>
<feBlend mode="normal" in="SourceGraphic" in2="effect1_dropShadow_8708_2822" result="shape"/>
</filter>
<clipPath id="clip0_8708_2822">
<rect width="755" height="222" fill="white" transform="translate(478 78)"/>
</clipPath>
</defs>
</svg>
